<svg viewBox="0 0 369.913 95.572" xmlns="http://www.w3.org/2000/svg"
  xmlns:xlink="http://www.w3.org/1999/xlink"><g fill="#111"><path xmlns="http://www.w3.org/2000/svg" d="M57.036 34.27c-6.409 6.409-6.945 13.398-4.917 17.996.189.425.156.946-.261 1.314L18.134 83.546c-2.854 2.536-2.723 5.554.07 8.347 2.792 2.793 5.81 2.922 8.345.069l29.967-33.725c.37-.415.889-.448 1.315-.26 4.598 2.026 11.586 1.49 17.996-4.918 6.771-6.771 8.408-16.656 3.137-21.928-5.273-5.271-15.156-3.632-21.928 3.139z"/><path xmlns="http://www.w3.org/2000/svg" d="M30.865 57.603c.39-.253.877-.272 1.246.144l4.749 5.337 5.554-4.934-5.66-5.036c-.415-.37-.397-.859-.143-1.247 2.995-4.596 1.391-9.39-2.905-12.998L19.925 27.57c-.901-.733-1.802-.786-2.588 0-.788.787-.786 1.803 0 2.589L28.74 41.56c.83.832.83 1.903 0 2.733l-.063.063c-.83.83-1.902.83-2.733 0L14.542 32.953c-.786-.786-1.802-.787-2.59 0-.786.788-.785 1.804.002 2.588l11.402 11.405c.831.83.831 1.902 0 2.731l-.061.063c-.83.83-1.902.83-2.733 0L9.158 38.336c-.786-.785-1.802-.787-2.589 0-.786.786-.732 1.687.001 2.588l11.299 13.78c3.609 4.298 8.4 5.895 12.996 2.899zM70.964 83.552 52.468 67.094l-6.017 6.77 16.102 18.098c2.535 2.853 5.55 2.72 8.34-.071 2.792-2.787 2.922-5.804.07-8.34z"/></g><path fill="#111" d="M119.31 31.895c3.159 0 6.118.59 8.876 1.769s5.022 2.906 6.791 5.18l-5.054 3.853c-2.737-3.41-6.338-5.116-10.802-5.116-4.843 0-8.833 1.726-11.971 5.18s-4.706 7.79-4.706 13.013c0 5.054 1.547 9.223 4.643 12.508s7.106 4.927 12.034 4.927 8.823-2 11.687-6l5.117 3.853c-1.77 2.358-4.128 4.253-7.076 5.685s-6.232 2.148-9.854 2.148c-4.296 0-8.192-1.042-11.687-3.127s-6.254-4.949-8.276-8.591S96 59.712 96 55.71c0-6.907 2.169-12.603 6.507-17.088s9.939-6.728 16.803-6.728zm34.492 15.161c3.79 0 6.791.864 9.002 2.59s3.38 4.128 3.506 7.202v16.045c0 1.517.084 3.138.253 4.865h-5.054a49.13 49.13 0 0 1-.19-4.549h-.126c-1.305 1.938-2.81 3.306-4.516 4.107s-3.696 1.2-5.97 1.2c-3.075 0-5.57-.821-7.486-2.464s-2.874-3.811-2.874-6.507c0-3.41 1.432-5.99 4.295-7.738s6.907-2.622 12.13-2.622h4.232v-1.074c0-2.021-.663-3.61-1.99-4.77s-3.064-1.736-5.212-1.736c-1.6 0-3 .242-4.2.726s-2.622 1.38-4.265 2.685l-3.411-3.538c3.243-2.863 7.202-4.337 11.876-4.422zm-7.77 22.047c0 3.243 2.148 4.865 6.444 4.865 2.569 0 4.622-.769 6.159-2.306s2.327-3.759 2.369-6.665v-1.642h-3.222c-3.706 0-6.59.474-8.654 1.421s-3.096 2.39-3.096 4.327zm43.336-22.047c1.053 0 1.895.127 2.527.38l-.253 6.127c-1.095-.295-2.042-.442-2.843-.442-5.6 0-8.444 3.116-8.528 9.35v15.287h-5.685V47.814h5.685v4.612h.127c.758-1.6 1.979-2.895 3.664-3.885s3.453-1.485 5.306-1.485zM226.828 30v47.758h-5.685v-4.296h-.126c-1.095 1.6-2.58 2.843-4.454 3.727s-3.864 1.327-5.97 1.327c-4.506-.042-8.16-1.537-10.96-4.485s-4.222-6.696-4.264-11.245c0-4.59 1.4-8.339 4.201-11.244s6.475-4.401 11.024-4.486c2.063 0 4.043.443 5.938 1.327s3.39 2.127 4.485 3.727h.126V30h5.686zm-25.394 32.786c0 3.075.905 5.57 2.716 7.486s4.19 2.895 7.139 2.938c2.99 0 5.38-.959 7.17-2.875s2.684-4.432 2.684-7.549c0-3.074-.884-5.57-2.653-7.486s-4.19-2.895-7.265-2.937c-2.948 0-5.316.968-7.106 2.906s-2.685 4.443-2.685 7.517zm45.989-15.73c3.79 0 6.79.864 9.002 2.59s3.38 4.128 3.506 7.202v16.045c0 1.517.084 3.138.253 4.865h-5.054a49.13 49.13 0 0 1-.19-4.549h-.126c-1.306 1.938-2.811 3.306-4.517 4.107s-3.695 1.2-5.97 1.2c-3.074 0-5.57-.821-7.485-2.464s-2.875-3.811-2.875-6.507c0-3.41 1.432-5.99 4.296-7.738s6.907-2.622 12.129-2.622h4.232v-1.074c0-2.021-.663-3.61-1.99-4.77s-3.063-1.736-5.211-1.736c-1.6 0-3 .242-4.201.726s-2.622 1.38-4.264 2.685l-3.411-3.538c3.242-2.863 7.201-4.337 11.876-4.422zm-7.77 22.047c0 3.243 2.148 4.865 6.443 4.865 2.57 0 4.622-.769 6.16-2.306s2.326-3.759 2.368-6.665v-1.642h-3.221c-3.706 0-6.591.474-8.655 1.421s-3.095 2.39-3.095 4.327zm44.852-22.047c4.422 0 8.033 1.453 10.834 4.36s4.243 6.695 4.327 11.37c0 4.675-1.432 8.454-4.296 11.34s-6.506 4.348-10.928 4.39c-2.19 0-4.233-.463-6.128-1.39s-3.327-2.148-4.296-3.664h-.126v22.11h-5.686V47.814h5.686v4.296h.126c1.137-1.6 2.632-2.843 4.485-3.727s3.854-1.327 6.002-1.327zm-10.613 15.73c0 3.117.916 5.633 2.748 7.55s4.2 2.874 7.107 2.874c3.032 0 5.422-.959 7.17-2.875s2.642-4.432 2.684-7.549c0-3.116-.894-5.622-2.684-7.517s-4.201-2.864-7.233-2.906c-2.99 0-5.37.979-7.139 2.937s-2.653 4.454-2.653 7.486zm37.398 7.012c1.179 0 2.168.422 2.969 1.264s1.2 1.81 1.2 2.906c0 1.221-.421 2.221-1.264 3s-1.81 1.17-2.905 1.17-2.064-.401-2.906-1.201-1.264-1.79-1.264-2.97.421-2.168 1.264-2.968 1.81-1.2 2.906-1.2zm16.361-36.892c1.137 0 2.116.41 2.938 1.232s1.231 1.8 1.231 2.937c0 1.18-.42 2.17-1.263 2.97s-1.81 1.2-2.906 1.2c-1.179 0-2.169-.4-2.969-1.2s-1.2-1.79-1.2-2.97.421-2.169 1.263-2.969 1.811-1.2 2.906-1.2zm2.843 14.908v29.944h-5.686V47.814h5.686zm23.5-.758c4.422 0 8.17 1.527 11.244 4.58s4.633 6.77 4.675 11.15c0 4.422-1.537 8.128-4.611 11.118s-6.844 4.528-11.308 4.612c-4.38 0-8.107-1.516-11.182-4.548s-4.653-6.76-4.738-11.182c0-4.338 1.527-8.023 4.58-11.055s6.834-4.59 11.34-4.675zm-9.855 15.73c0 3.075.905 5.57 2.716 7.486s4.19 2.895 7.139 2.938c2.99 0 5.37-.959 7.138-2.875s2.674-4.432 2.716-7.549c0-3.074-.884-5.57-2.653-7.486s-4.19-2.895-7.264-2.937c-2.99 0-5.37.99-7.139 2.969s-2.653 4.464-2.653 7.454z"/></svg>